<svg width="37" height="37" viewBox="0 0 37 37" fill="none" xmlns="http://www.w3.org/2000/svg">
<path d="M-7.28853e-06 9.50654C0.282533 8.90724 0.753433 8.68397 1.41269 8.70747C2.63703 8.74272 3.86137 8.70747 5.08571 8.70747H5.43889C5.4742 8.13167 5.45066 7.56763 5.54484 7.03883C5.81561 5.42895 7.29894 4.30086 8.94709 4.39487C10.5717 4.50063 11.902 5.85199 11.9608 7.47362C11.9726 7.87315 11.9608 8.26093 11.9608 8.69572H17.3762C17.3762 8.86023 17.3762 8.98949 17.3762 9.11875C17.3762 11.0694 17.3762 13.0318 17.3762 14.9825C17.3762 15.8521 17.7882 16.2516 18.6594 16.2633C19.1185 16.2633 19.5777 16.2398 20.025 16.3338C21.0845 16.5454 21.7909 17.5442 21.6967 18.6135C21.6025 19.6946 20.7078 20.5407 19.613 20.5759C19.2598 20.5759 18.9184 20.5759 18.5652 20.5759C17.8118 20.5759 17.3762 21.0107 17.3762 21.7628C17.3762 23.7369 17.3762 25.7229 17.3762 27.697C17.3762 27.8263 17.3762 27.9555 17.3762 28.1083C17.2349 28.1083 17.1172 28.12 16.9995 28.12C15.3749 28.12 13.7503 28.12 12.1257 28.12C11.3016 28.12 10.8896 27.697 10.8778 26.8862C10.8778 26.4162 10.9013 25.9461 10.8071 25.4878C10.5952 24.4185 9.5828 23.7017 8.49973 23.8074C7.42844 23.9132 6.59259 24.8063 6.55727 25.8756C6.5455 26.2399 6.55727 26.5924 6.55727 26.9567C6.55727 27.6735 6.10992 28.12 5.38002 28.12C4.07328 28.12 2.75476 28.0965 1.44801 28.12C0.776978 28.1435 0.282533 27.9438 -7.28853e-06 27.321V21.3397C0.282533 20.7169 0.776978 20.4819 1.44801 20.5407C1.73055 20.5642 2.02486 20.5407 2.3074 20.5407C3.3787 20.5054 4.27341 19.6711 4.37936 18.6018C4.48531 17.5207 3.76719 16.5101 2.69589 16.2986C2.28386 16.2163 1.86005 16.2163 1.43624 16.2398C0.765205 16.2868 0.27076 16.0636 -0.0117798 15.4408V9.45953L-7.28853e-06 9.50654Z" fill="black"/>
<path d="M36.9303 27.3563C36.6478 27.9791 36.1533 28.1788 35.4823 28.1553C34.2697 28.1201 33.0571 28.1553 31.8446 28.1553H31.4914C31.4561 28.7194 31.4914 29.2599 31.3972 29.7887C31.1265 31.4456 29.6313 32.5972 27.9597 32.4679C26.2997 32.3387 25.0048 30.952 24.9694 29.2834C24.9694 28.9309 24.9694 28.5666 24.9694 28.1671H19.5776V22.7851C22.5679 22.6089 23.9688 20.1647 23.8864 18.2728C23.804 16.3574 22.3324 14.2304 19.5776 14.0894V8.73099C19.6836 8.73099 19.7895 8.71924 19.8955 8.71924C21.5319 8.71924 23.1682 8.71924 24.8046 8.71924C25.6287 8.71924 26.0407 9.14227 26.0525 9.95309C26.0525 10.4231 26.029 10.8932 26.1231 11.3515C26.3233 12.409 27.3239 13.1141 28.3952 13.0318C29.4783 12.9378 30.3377 12.0448 30.373 10.9519C30.3848 10.5759 30.373 10.2116 30.373 9.83558C30.373 9.17753 30.8321 8.71924 31.4796 8.71924C32.9276 8.71924 34.3639 8.71924 35.8119 8.71924C36.3888 8.71924 36.7066 9.04827 36.9421 9.5183V15.4995C36.6595 16.1223 36.1651 16.3574 35.4941 16.2986C35.2115 16.2751 34.9172 16.2986 34.6347 16.2986C33.5634 16.3339 32.6687 17.1682 32.5627 18.2375C32.4567 19.3186 33.1749 20.3292 34.2462 20.5407C34.6582 20.623 35.082 20.623 35.5058 20.5995C36.1769 20.5525 36.6713 20.7757 36.9538 21.3985V27.3798L36.9303 27.3563Z" fill="black"/>
<path d="M27.4063 0C28.0303 0.282023 28.254 0.775563 28.2069 1.44537C28.1715 2.02116 28.2069 2.59696 28.2069 3.17276C28.2069 3.84256 27.7477 4.32435 27.1238 4.32435C26.5116 4.32435 26.0525 3.84256 26.0407 3.17276C26.0407 2.59696 26.0643 2.02116 26.0407 1.44537C25.9936 0.775563 26.2173 0.282023 26.8413 0H27.4181L27.4063 0Z" fill="black"/>
<path d="M9.52394 36.8627C8.89999 36.5807 8.67632 36.0871 8.72341 35.4173C8.75872 34.8415 8.72341 34.2657 8.72341 33.6899C8.72341 33.0201 9.18253 32.5383 9.80648 32.5383C10.4186 32.5383 10.8778 33.0201 10.8895 33.6899C10.8895 34.2657 10.866 34.8415 10.8895 35.4173C10.9366 36.0871 10.713 36.5807 10.089 36.8627H9.51216H9.52394Z" fill="black"/>
<path d="M23.8864 5.35845C23.8393 5.89899 23.6627 6.23977 23.2742 6.42778C22.8504 6.6393 22.4266 6.5923 22.097 6.28677C21.32 5.54646 20.543 4.78265 19.8013 3.99534C19.4128 3.58405 19.4717 2.9495 19.8484 2.56172C20.2487 2.16219 20.8962 2.10343 21.32 2.50297C22.1087 3.24328 22.8622 4.01884 23.6156 4.7944C23.7804 4.95891 23.8275 5.22919 23.8864 5.3702V5.35845Z" fill="black"/>
<path d="M34.7642 3.3608C34.6347 3.60757 34.5405 3.88959 34.3521 4.08935C33.6693 4.80616 32.9512 5.51122 32.2449 6.20453C31.774 6.66281 31.1265 6.66281 30.6909 6.22803C30.2671 5.80499 30.2671 5.14694 30.7144 4.6769C31.409 3.96009 32.1154 3.26679 32.8335 2.56173C33.1867 2.22095 33.5987 2.12695 34.0578 2.31496C34.4581 2.47947 34.7053 2.89076 34.7642 3.34904V3.3608Z" fill="black"/>
<path d="M3.41404 34.7123C2.88427 34.6653 2.55464 34.5008 2.35451 34.1013C2.14261 33.6782 2.17792 33.2552 2.49578 32.9262C3.23745 32.1506 4.00266 31.375 4.79142 30.6347C5.20346 30.247 5.83917 30.294 6.22766 30.6817C6.62793 31.0695 6.69856 31.7041 6.31007 32.1154C5.55663 32.9144 4.76787 33.69 3.96734 34.4538C3.80253 34.6066 3.54353 34.6418 3.41404 34.7006V34.7123Z" fill="black"/>
<path d="M17.3998 33.5138C17.3527 34.0543 17.1761 34.3951 16.7876 34.5831C16.3638 34.7946 15.94 34.7476 15.6103 34.4303C14.8334 33.69 14.0564 32.9262 13.3147 32.1389C12.9262 31.7276 12.9851 31.0931 13.3618 30.7053C13.7621 30.3057 14.4095 30.247 14.8334 30.6465C15.6221 31.3868 16.3756 32.1624 17.129 32.938C17.2938 33.1025 17.3409 33.3727 17.3998 33.5138Z" fill="black"/>
</svg>
